<?xml version="1.0" ?><svg enable-background="new 0 0 500 500" id="Layer_1" version="1.1" viewBox="0 0 500 500" xml:space="preserve" xmlns="http://www.w3.org/2000/svg" xmlns:xlink="http://www.w3.org/1999/xlink"><g><g><path d="M386.9,401.1H113.1c-45.3,0-82.1-36.8-82.1-82.1c0-36.8,24.4-68.7,59.2-78.7c8.3-22.5,27.7-38.8,51-43.2    c6.2-54.5,52.6-97,108.8-97c44.7,0,85,27.7,101.5,68.6c48.1,2.8,86.7,41.3,89.9,89.3c17.6,15.6,27.6,37.5,27.6,61.1    C469,364.2,432.2,401.1,386.9,401.1z M154.2,223.1c-19.1,0-35.5,13-39.9,31.7l-2,8.8l-8.9,1.6c-26.1,4.7-45,27.3-45,53.7    c0,30.2,24.6,54.8,54.8,54.8h273.8c30.2,0,54.8-24.6,54.8-54.8c0-17.1-8-33-21.9-43.5l-5.4-4.1l0-7.9c0-37-30.7-67.7-68.5-67.7    l-14,0.7l-3.1-10.3c-10.2-34.6-42.6-58.8-78.7-58.8c-45.3,0-82.1,36.8-82.1,82.1v13.7H154.2z"/></g><g><rect height="117.3" width="27.4" x="236.3" y="229"/></g><g><polygon points="295.1,287.6 250,242.5 204.9,287.6 185.6,268.2 250,203.8 314.4,268.2   "/></g></g></svg>